# xmcd
#
# Track frame offsets:
#  183
#  19885
#  45435
#  56575
#  76295
#  90985
#  114120
#  125098
#
# Disc length: 1977 seconds
#
# Revision: 3
# Processed by: cddbd v1.5.1PL2 Copyright (c) Steve Scherf et al.
# Submitted via: Collectorz.com_Music_Collector 6.10
#
DISCID=5707b708
DTITLE=John Lee Hooker - It Serve You Right To Suffer
DYEAR=1965
DGENRE=Blues
TTITLE0=Shake It Baby
TTITLE1=Country Boy
TTITLE2=Bottle Up And Go
TTITLE3=You're Wrong
TTITLE4=Sugar Mama
TTITLE5=Decoration Day
TTITLE6=Berry Gordy Jr. - Money
TTITLE7=It Serve You Right
EXTD=
EXTT0=
EXTT1=
EXTT2=
EXTT3=
EXTT4=
EXTT5=
EXTT6=
EXTT7=
PLAYORDER=
